<svg id="Ebene_1" data-name="Ebene 1" xmlns="http://www.w3.org/2000/svg" viewBox="0 0 409.04 116.49">
  <defs>
    <style>
      .cls-1 {
        fill: #272727;
      }
    </style>
  </defs>
  <title>logo</title>
  <g>
    <path class="cls-1" d="M99.37,21.15h35V19.42H97.74c.55.57,1.11,1.13,1.63,1.73" transform="translate(-2.82 -2.23)"/>
    <path class="cls-1" d="M104.38,27.69h30V26H103.06c.42.6.92,1.11,1.32,1.73" transform="translate(-2.82 -2.23)"/>
    <path class="cls-1" d="M107.93,34.24H134.4V32.51H107c.3.58.64,1.13.93,1.73" transform="translate(-2.82 -2.23)"/>
    <path class="cls-1" d="M112.46,47.33H134.4V45.6H112.16c.14.57.18,1.15.3,1.73" transform="translate(-2.82 -2.23)"/>
    <path class="cls-1" d="M110.56,40.78H134.4V39.06H110c.21.57.4,1.15.6,1.73" transform="translate(-2.82 -2.23)"/>
    <path class="cls-1" d="M58.21,10.81h0Zm-28,99.93a53,53,0,0,0,28.41,7.82v.16c24.95,0,46.94-17.68,53.48-43,0-.12,0-.25.06-.37h-2.4a56,56,0,0,1-14.49,25.22c-5.47-3-14.51-3.1-16.8-4.21-2.56-1.24-2-6.62-2-7.44a81.8,81.8,0,0,0,3.21-15.73,2.15,2.15,0,0,0,1-.15,5.67,5.67,0,0,0,2.15-1.63c.55-.69,1.48-4.5,2.5-7.64s2.17-5.43,2.68-7.8a7.52,7.52,0,0,0-.18-4.5c-1.18-1.62-2-.9-3-.89,0-1.22,0-2.27-.07-3.27H58.35V45.6H84.72c-.08-1.7-.26-3.25-.41-4.82h-26V39.06H84.16c0-.29,0-.54-.07-.83-.19-1.31-.5-2.65-.73-4h-25V32.51H83a40.78,40.78,0,0,0-1.25-4.82H58.35V26H81a15.61,15.61,0,0,0-1.47-3c-.5-.69-1.06-1.23-1.58-1.87H58.35V19.42H76.5c-4.76-5.28-10.42-8.65-18.29-8.62h0c-9.58,0-15.94,4.79-21.32,12.21-2.9,4-3.79,9.87-4.57,15.21a99.44,99.44,0,0,0-.77,12.37c-1,0-1.84-.73-3,.89a7.51,7.51,0,0,0-.18,4.5c.51,2.37,1.65,4.66,2.68,7.8s2,7,2.5,7.64a5.68,5.68,0,0,0,2.15,1.63,2.14,2.14,0,0,0,1,.15,81.93,81.93,0,0,0,3.22,15.73c0,.81.6,6.2-2,7.44-2.27,1.1-11.1,1.17-16.6,4A57.73,57.73,0,0,1,7,45.86C13.26,21.61,34.33,4.68,58.24,4.68V2.23c-24.95,0-46.94,17.68-53.48,43s3.92,52.25,25.44,65.52" transform="translate(-2.82 -2.23)"/>
    <path class="cls-1" d="M411.48,47.3V19.52H408V42.59q-3.72-3.4-13-11.39-8.44-7.33-13.12-11.67h-3.36V47.3H382V24.11L408.12,47.3Zm-43.33,0V19.52h-3.52V42.59q-3.72-3.4-13-11.39-8.44-7.33-13.12-11.67h-3.36V47.3h3.52V24.11L364.79,47.3ZM317.46,35.87H302l7.88-12ZM328.62,47.3,311.3,19.52h-2.84L290.54,47.3h4.16l5.36-8.36h19.28l5.24,8.36ZM286.39,25.14a18.5,18.5,0,0,0-7.24-4.59A28.22,28.22,0,0,0,270,19.24a26.81,26.81,0,0,0-13.36,3.07q-6.8,3.81-6.8,11.31,0,7.25,6.56,11a26,26,0,0,0,13,3,27.67,27.67,0,0,0,9-1.31,21,21,0,0,0,7.52-4.63l-3.32-1.52q-4.6,4.42-13.24,4.42a21.39,21.39,0,0,1-11-2.58,9.35,9.35,0,0,1-5-8.52q0-5.61,5.24-8.6A22.89,22.89,0,0,1,270,22.27q9,0,13.08,4.34Zm-45.8-5.61h-3.52V47.3h3.52ZM230.2,47.3v-3H207.09V19.52h-3.52V47.3Zm-37-27.77h-3.52V47.3h3.52ZM180.34,40q0-4.14-4.32-6-3.32-1.47-13.16-2.75a37.23,37.23,0,0,1-7.44-1.52q-2.84-1.06-2.84-3.07,0-4.38,11.32-4.38a25.59,25.59,0,0,1,8,.94,5.82,5.82,0,0,1,3,2A7.34,7.34,0,0,1,176.1,29h3.52a8.33,8.33,0,0,0-4.36-7.62q-3.84-2.13-11.36-2.13Q149,19.24,149,26.65q0,4,5.24,6a57.21,57.21,0,0,0,9.44,2q6.16.94,7.68,1.27a12.62,12.62,0,0,1,4,1.31,2.94,2.94,0,0,1,1.44,2.66q0,2.58-4.32,3.81a27.18,27.18,0,0,1-7.48.9q-13.6,0-13.6-6.6V36.57h-3.52v1.56q0,5.65,6.48,8a31.83,31.83,0,0,0,10.56,1.47,29.18,29.18,0,0,0,9.72-1.43q5.72-2,5.72-6.19" transform="translate(-2.82 -2.23)"/>
    <path class="cls-1" d="M411.86,75.78V60.86h-1.93v6.36H395.75V60.86h-1.93V75.78h1.93v-7h14.19v7Zm-25-4.27q0,1.41-2,2.09a11,11,0,0,1-3.7.55h-8.25v-5.3h8.12a11.72,11.72,0,0,1,3.87.55q1.93.68,1.93,2.11m-.68-6.67q0,1.23-1.75,1.87a9.52,9.52,0,0,1-3.31.51h-8.19V62.49h8.21a9.69,9.69,0,0,1,3.37.51q1.66.61,1.66,1.85m2.58,6.64q0-2.6-3.09-3.59,2.43-1.08,2.43-3a3.52,3.52,0,0,0-2.58-3.37,11.72,11.72,0,0,0-4.31-.7H371V75.78h9.83a14.62,14.62,0,0,0,4.79-.68q3.13-1.1,3.13-3.61m-23.43,4.29V60.86h-2l-9.08,12.72-9-12.72h-2V75.78h1.93V63.92l8.45,11.86H355l8.43-11.86V75.78Zm-30.89-1.14q3.57-1.69,3.57-5a10.72,10.72,0,0,0-.15-1.45h-10.4v1.63H336v.07q0,2.2-2.76,3.41a12.94,12.94,0,0,1-5.32,1A13.6,13.6,0,0,1,321.64,73a5.18,5.18,0,0,1-.11-9.31,12.69,12.69,0,0,1,6.26-1.39,12.15,12.15,0,0,1,5.47,1,5,5,0,0,1,2.58,3h2a6.89,6.89,0,0,0-4.36-4.77,16.34,16.34,0,0,0-5.76-.9,14.9,14.9,0,0,0-7.31,1.63,6.5,6.5,0,0,0-3.68,6,6.42,6.42,0,0,0,3.79,6A15.79,15.79,0,0,0,328,75.93a15,15,0,0,0,6.48-1.3m-35.86-2.79a3.34,3.34,0,0,0-2.36-3.21,31.11,31.11,0,0,0-7.2-1.47,20.79,20.79,0,0,1-4.07-.81q-1.56-.57-1.55-1.65,0-2.35,6.2-2.35a14.28,14.28,0,0,1,4.38.51,3.18,3.18,0,0,1,1.65,1.07,3.88,3.88,0,0,1,.65,2h1.93a4.46,4.46,0,0,0-2.39-4.09,13.35,13.35,0,0,0-6.22-1.14q-8.14,0-8.14,4,0,2.16,2.87,3.21A31.8,31.8,0,0,0,289.48,69q3.37.51,4.2.68a7,7,0,0,1,2.17.7,1.57,1.57,0,0,1,.79,1.43q0,1.39-2.36,2a15.12,15.12,0,0,1-4.09.48q-7.44,0-7.44-3.54V70h-1.93v.84q0,3,3.55,4.29a17.71,17.71,0,0,0,5.78.79,16.26,16.26,0,0,0,5.32-.77q3.13-1.08,3.13-3.32m-22.83,3.94V60.86h-2L264.7,73.58l-9-12.72h-2V75.78h1.93V63.92L264,75.78h1.38l8.43-11.86V75.78Zm-26.36,0V74.15H235.47V68.83h12.19V67.22H235.47V62.49h13.77V60.86H233.56V75.78ZM229.64,62.49V60.86H212.39v1.63h7.66V75.78H222V62.49Zm-20.3,9.35A3.34,3.34,0,0,0,207,68.63a31.1,31.1,0,0,0-7.2-1.47,20.78,20.78,0,0,1-4.07-.81q-1.56-.57-1.56-1.65,0-2.35,6.2-2.35a14.27,14.27,0,0,1,4.38.51,3.18,3.18,0,0,1,1.65,1.07,3.89,3.89,0,0,1,.65,2H209a4.46,4.46,0,0,0-2.39-4.09,13.35,13.35,0,0,0-6.22-1.14q-8.14,0-8.14,4,0,2.16,2.87,3.21A31.82,31.82,0,0,0,200.24,69q3.37.51,4.2.68a7,7,0,0,1,2.17.7,1.57,1.57,0,0,1,.79,1.43q0,1.39-2.36,2a15.12,15.12,0,0,1-4.09.48q-7.44,0-7.44-3.54V70h-1.93v.84q0,3,3.55,4.29a17.72,17.72,0,0,0,5.78.79,16.26,16.26,0,0,0,5.32-.77q3.13-1.08,3.13-3.32m-19.46-11h-2.82l-8.25,6.38-8.25-6.38h-2.85l10.14,7.88v7h1.93v-7ZM166,71.84a3.34,3.34,0,0,0-2.36-3.21,31.13,31.13,0,0,0-7.2-1.47,20.78,20.78,0,0,1-4.07-.81q-1.55-.57-1.55-1.65,0-2.35,6.19-2.35a14.28,14.28,0,0,1,4.38.51A3.19,3.19,0,0,1,163,63.91a3.9,3.9,0,0,1,.65,2h1.93a4.46,4.46,0,0,0-2.39-4.09A13.35,13.35,0,0,0,157,60.71q-8.14,0-8.14,4,0,2.16,2.87,3.21A31.83,31.83,0,0,0,156.91,69q3.37.51,4.2.68a7,7,0,0,1,2.17.7,1.57,1.57,0,0,1,.79,1.43q0,1.39-2.37,2a15.12,15.12,0,0,1-4.09.48q-7.44,0-7.44-3.54V70h-1.93v.84q0,3,3.55,4.29a17.72,17.72,0,0,0,5.78.79,16.27,16.27,0,0,0,5.32-.77Q166,74.08,166,71.84" transform="translate(-2.82 -2.23)"/>
  </g>
</svg>
